<svg width="1816" height="212" viewBox="0 0 1816 212" fill="none" xmlns="http://www.w3.org/2000/svg">
<g clip-path="url(#clip0_2110_1415)">
<path d="M1821.9 4H0V211.1H1821.9V4Z" fill="#251F21"/>
<path d="M1821.9 0H0V4H1821.9V0Z" fill="#00913C"/>
<path d="M0 126.6L397 211.1H670.9L914.1 126.6H1821.9V4H0V126.6Z" fill="#00913C"/>
<path d="M372.4 120.6H0V211H493.8C478.2 158.8 429.8 120.6 372.4 120.6Z" fill="#B40000"/>
<path d="M411.3 0H259.1L263.1 4H411.3V0Z" fill="#FF9E00"/>
<path d="M411.3 4H263.1L411.3 152.2V4Z" fill="#FF9E00"/>
<path d="M563.5 0H411.3L415.3 4H563.5V0Z" fill="#FF9E00"/>
<path d="M563.5 4H415.3L563.5 152.2V4Z" fill="#FF9E00"/>
<path d="M715.6 0H563.5L567.5 4H715.6V0Z" fill="#FF9E00"/>
<path d="M715.6 4H567.5L715.6 152.2V4Z" fill="#FF9E00"/>
<path d="M1449.7 83.9003H1535.8L1492.6 9.30029L1449.7 83.9003Z" fill="#007452"/>
<path d="M1535.8 83.9003H1621.3L1578.1 9.30029L1535.8 83.9003Z" fill="#FA2F00"/>
<path d="M1621.3 83.9003H1706.8L1663.5 9.30029L1621.3 83.9003Z" fill="#007452"/>
<path d="M1706.8 83.9003H1792.9L1749 9.30029L1706.8 83.9003Z" fill="#007452"/>
<path d="M1449.7 156.9H1535.8L1492.6 83.8003L1449.7 156.9Z" fill="#007452"/>
<path d="M1535.8 156.9H1621.3L1578.1 83.8003L1535.8 156.9Z" fill="white"/>
<path d="M1621.3 156.9H1706.8L1663.5 83.8003L1621.3 156.9Z" fill="#007452"/>
<path d="M1706.8 156.9H1792.9L1749 83.8003L1706.8 156.9Z" fill="#007452"/>
<path d="M1460.8 211.1H1524.6L1492.6 156.9L1460.8 211.1Z" fill="white"/>
<path d="M1546.7 211.1H1610.1L1578.1 156.9L1546.7 211.1Z" fill="#FA2F00"/>
<path d="M1632.2 211.1H1695.6L1663.5 156.9L1632.2 211.1Z" fill="#007452"/>
<path d="M1717.7 211.1H1781.6L1749 156.9L1717.7 211.1Z" fill="#007452"/>
<path d="M1019.5 124.7H749.5V147.5H1019.5V124.7Z" fill="#FF6F00"/>
<path d="M1019.5 163.7H749.5V186.5H1019.5V163.7Z" fill="#FF6F00"/>
<path d="M1019.5 202.7H749.5V211.1H1019.5V202.7Z" fill="#FF6F00"/>
<path d="M1059.1 125.5H1036.3V211.1H1059.1V125.5Z" fill="#FF6F00"/>
<path d="M1098.1 125.5H1075.3V211.1H1098.1V125.5Z" fill="#FF6F00"/>
<path d="M1137.1 125.5H1114.3V211.1H1137.1V125.5Z" fill="#FF6F00"/>
<path d="M1097.9 104.1C1124.02 104.1 1145.2 82.9231 1145.2 56.8C1145.2 30.6769 1124.02 9.5 1097.9 9.5C1071.78 9.5 1050.6 30.6769 1050.6 56.8C1050.6 82.9231 1071.78 104.1 1097.9 104.1Z" fill="#251F21"/>
<path d="M1232.67 74.8681C1242.67 50.733 1231.21 23.0632 1207.07 13.0659C1182.94 3.06861 1155.27 14.5296 1145.27 38.6647C1135.27 62.7998 1146.73 90.4696 1170.87 100.467C1195 110.464 1222.67 99.0032 1232.67 74.8681Z" fill="#251F21"/>
<path d="M1328.6 40.7002C1303.6 40.7002 1283.4 60.9002 1283.4 85.9002H1319.4C1298.9 90.2002 1283.4 108.4 1283.4 130.2H1319.4C1298.9 134.5 1283.4 152.7 1283.4 174.5H1373.8C1373.8 152.7 1358.4 134.5 1337.8 130.2H1373.8C1373.8 108.4 1358.4 90.2002 1337.8 85.9002H1373.8C1373.9 60.9002 1353.6 40.7002 1328.6 40.7002Z" fill="#FF9E00"/>
<path d="M183.8 199.3C229.3 199.3 267 165.9 273.6 122.2H94C100.7 165.8 138.4 199.3 183.8 199.3Z" fill="#251F21"/>
<path d="M183.8 164.9C210.2 164.9 232.3 146.7 238.5 122.2H129.2C135.3 146.7 157.4 164.9 183.8 164.9Z" fill="#FF9E00"/>
<path d="M183.8 122.3C229.3 122.3 267 88.9002 273.6 45.2002H94C100.7 88.9002 138.4 122.3 183.8 122.3Z" fill="#251F21"/>
<path d="M183.8 87.9002C210.2 87.9002 232.3 69.7002 238.5 45.2002H129.2C135.3 69.7002 157.4 87.9002 183.8 87.9002Z" fill="#FF9E00"/>
<path d="M771.6 58.8L817.9 14L859.7 55.8L901.5 14L944.3 56.8L988.1 13L1032.9 57.8" stroke="#251F21" stroke-width="4" stroke-miterlimit="10"/>
<path d="M771.6 95.5999L817.9 50.8999L859.7 92.6999L901.5 50.8999L944.3 93.6999L988.1 49.8999L1032.9 94.6999" stroke="#251F21" stroke-width="4" stroke-miterlimit="10"/>
<path d="M404.8 51.7002H327.6V55.7002H404.8V51.7002Z" fill="#FF6F00"/>
<path d="M404.8 30H327.6V34H404.8V30Z" fill="#FF6F00"/>
<path d="M404.8 8.2002H327.6V12.2002H404.8V8.2002Z" fill="#FF6F00"/>
<path d="M557.7 51.7002H480.5V55.7002H557.7V51.7002Z" fill="#B40000"/>
<path d="M557.7 30H480.5V34H557.7V30Z" fill="#B40000"/>
<path d="M557.7 8.2002H480.5V12.2002H557.7V8.2002Z" fill="#B40000"/>
<path d="M710.7 51.7002H633.5V55.7002H710.7V51.7002Z" fill="#FF6F00"/>
<path d="M710.7 30H633.5V34H710.7V30Z" fill="#FF6F00"/>
<path d="M710.7 8.2002H633.5V12.2002H710.7V8.2002Z" fill="#FF6F00"/>
<path d="M1190.86 29.8126L1165.69 54.9854L1190.86 80.1581L1216.04 54.9854L1190.86 29.8126Z" fill="#FF9E00"/>
<path d="M1096.36 29.8082L1071.19 54.981L1096.36 80.1537L1121.54 54.981L1096.36 29.8082Z" fill="#FF9E00"/>
</g>
<defs>
<clipPath id="clip0_2110_1415">
<rect width="1821.9" height="211.1" fill="white"/>
</clipPath>
</defs>
</svg>
