<svg width="503" height="399" viewBox="0 0 503 399" fill="none" xmlns="http://www.w3.org/2000/svg">
<path d="M29.5651 54.4823L0.228516 0H492.323L471.482 39.4651C466.411 49.067 465.838 60.4177 469.916 70.4816L486.31 110.945C490.145 120.41 489.876 131.043 485.568 140.302L471.415 170.715C466.434 181.419 466.889 193.863 472.638 204.175L492.556 239.9C498.545 250.642 498.774 263.665 493.168 274.611L472.713 314.545C466.967 325.765 467.36 339.145 473.756 350.007L502.141 398.216H0.228516L27.0094 352.731C34.2558 340.424 33.73 325.036 25.6605 313.252L13.1113 294.926C5.21836 283.4 4.52905 268.399 11.3316 256.198L28.3043 225.755C34.8317 214.047 34.4798 199.717 27.3855 188.343L11.4441 162.786C4.50109 151.656 4.00577 137.671 10.1438 126.077L29.6873 89.1617C35.4347 78.3054 35.3889 65.2978 29.5651 54.4823Z" fill="#00913C"/>
</svg>
